# xmcd
#
# Track frame offsets:
# 150
# 27447
# 50323
# 75776
# 94661
# 107985
# 125332
# 145743
# 188866
# 216570
#
# Disc length: 3138 seconds
#
#
# Revision: 0
# Processed by: cddbd v1.5.1PL0 Copyright (c) Steve Scherf et al.
# Submitted via: FreeRIP 2.942 
#
DISCID=840c400a
DTITLE=Anthony Mazzella - Unity
DYEAR=2003
DGENRE=Instrumental
TTITLE0=01-Free Spirit
TTITLE1=02-Movin On
TTITLE2=03-Altar of the Goddess
TTITLE3=04-In Out of the Woods
TTITLE4=05-Breaking the Mold
TTITLE5=06-Canyonlands
TTITLE6=07-To the Shore
TTITLE7=08-Serpents Under the Cross
TTITLE8=09-Into Forever
TTITLE9=10-Omnipotent
EXTD=
EXTT0=
EXTT1=
EXTT2=
EXTT3=
EXTT4=
EXTT5=
EXTT6=
EXTT7=
EXTT8=
EXTT9=
PLAYORDER=
